<?xml version="1.0" encoding="utf-8"?>
<!-- Generator: Adobe Illustrator 22.0.1, SVG Export Plug-In . SVG Version: 6.00 Build 0)  -->
<svg version="1.1" id="Layer_1" xmlns="http://www.w3.org/2000/svg" xmlns:xlink="http://www.w3.org/1999/xlink" x="0px" y="0px"
	 viewBox="0 0 1000 1000" style="enable-background:new 0 0 1000 1000;" xml:space="preserve">
<style type="text/css">
	.st0{fill:#CACACA;}
	.st1{fill:#FFFFFF;}
	.st2{fill:#2CA6FC;}
	.st3{fill:none;stroke:#CACACA;stroke-width:14;stroke-miterlimit:10;}
</style>
<g id="Layer_2_1_">
	<g id="XMLID_4_">
		<g>
			<path class="st0" d="M709.4,539.3c0-29.5-24.1-53.7-53.7-53.7c-29.6,0-53.7,24-53.7,53.7c0,29.6,24,53.7,53.7,53.7
				S709.4,568.9,709.4,539.3z M651.8,408c74.2,0,134.5,60.3,134.5,134.5c0,30.5-21.3,77.7-63.2,140.3c-20.2,30.2-40.7,57-52.3,71.8
				h-38c-11.6-14.8-32-41.6-52.3-71.8c-41.9-62.6-63.2-109.9-63.2-140.3C517.3,468.3,577.7,408,651.8,408z"/>
			<circle class="st1" cx="655.7" cy="539.3" r="53.7"/>
			<path class="st1" d="M988.3,469.7c0.5,9.4,0.8,18.8,0.8,28.3c0,270.6-219.4,490-490,490c-129,0-246.3-49.8-333.8-131.3
				c-1-0.9-2-1.9-3-2.8C68.8,764.8,10.6,639,10.6,499.7c0-270.2,219.1-489.3,489.3-489.3c259.7,0,472.1,202.3,488.3,457.9
				C988.2,468.7,988.3,469.2,988.3,469.7z M825.7,779.1v-24.5h-0.1H670.8c11.6-14.8,32.1-41.6,52.3-71.8
				c41.9-62.6,63.2-109.8,63.2-140.3c0-74.2-60.3-134.5-134.5-134.5c-74.1,0-134.5,60.3-134.5,134.5c0,30.4,21.3,77.7,63.2,140.3
				c20.3,30.2,40.7,57,52.3,71.8H489.7v-97.5h-46.6v97.5h-82v-66.2c0.1-17.3-13.9-31.3-31.2-31.3c-17.3,0-31.3,14-31.3,31.3v66.2
				H172.5h-0.1v24.5h0.1h653.1H825.7z M659,371.6V252.5h-0.1H557.5h-0.2L414.9,277h0.1h142.3h77.1v94.6h0.1H659L659,371.6z
				 M579.6,368.2v-46.6H533v46.6H579.6z M490.5,622v-46.6h-46.6V622H490.5z M490.5,537.4v-46.6h-46.6v46.6H490.5z M490.5,452.8
				v-46.6h-46.6v46.6H490.5z M490.5,368.2v-46.6h-46.6v46.6H490.5z M417.9,519.2V400H316.3l-142.4,24.5h142.4h77.1v94.7H417.9z
				 M361.2,580.7v-7.1c0-12.9-10.4-23.3-23.3-23.3h-7.1c-12.9,0-23.3,10.4-23.3,23.3v7.1c0,12.9,10.4,23.3,23.3,23.3h7.1
				C350.8,604,361.2,593.6,361.2,580.7z M361.2,483.2v-7.1c0-12.9-10.4-23.3-23.3-23.3h-7.1c-12.9,0-23.3,10.4-23.3,23.3v7.1
				c0,12.9,10.4,23.3,23.3,23.3h7.1C350.8,506.5,361.2,496.1,361.2,483.2z M261.9,678.2v-7.1c0-12.9-10.4-23.3-23.3-23.3h-7.1
				c-12.9,0-23.3,10.4-23.3,23.3v7.1c0,12.9,10.4,23.3,23.3,23.3h7.1C251.5,701.5,261.9,691.1,261.9,678.2z M261.9,580.7v-7.1
				c0-12.9-10.4-23.3-23.3-23.3h-7.1c-12.9,0-23.3,10.4-23.3,23.3v7.1c0,12.9,10.4,23.3,23.3,23.3h7.1
				C251.5,604,261.9,593.6,261.9,580.7z M261.9,483.2v-7.1c0-12.9-10.4-23.3-23.3-23.3h-7.1c-12.9,0-23.3,10.4-23.3,23.3v7.1
				c0,12.9,10.4,23.3,23.3,23.3h7.1C251.5,506.5,261.9,496.1,261.9,483.2z"/>
			<path d="M988.2,468.3C972,212.7,759.6,10.4,499.9,10.4c-270.2,0-489.3,219.1-489.3,489.3c0,139.3,58.2,265.1,151.7,354.2
				C68,764.6,9.1,638.2,9.1,498C9.1,227.4,228.4,8,499,8C759.6,8,972.8,211.5,988.2,468.3z"/>
			<rect x="825.6" y="754.6" class="st2" width="0.1" height="24.5"/>
			<polygon class="st0" points="825.6,754.6 825.6,779.1 172.5,779.1 172.5,754.6 298.6,754.6 298.6,755 361.1,755 361.1,754.6 
				443.1,754.6 443.1,754.9 489.7,754.9 489.7,754.6 632.8,754.6 670.8,754.6 			"/>
			<rect x="658.9" y="252.5" class="st2" width="0.1" height="119.1"/>
			<polygon class="st0" points="658.9,252.5 658.9,371.6 634.5,371.6 634.5,277 634.4,277 557.3,277 415,277 557.5,252.5 			"/>
			<rect x="634.4" y="277" class="st2" width="0.1" height="94.6"/>
			<rect x="533" y="321.6" class="st0" width="46.6" height="46.6"/>
			<polygon class="st2" points="557.5,252.5 415,277 414.9,277 557.3,252.5 			"/>
			<rect x="443.9" y="575.4" class="st0" width="46.6" height="46.6"/>
			<rect x="443.9" y="490.8" class="st0" width="46.6" height="46.6"/>
			<rect x="443.9" y="406.2" class="st0" width="46.6" height="46.6"/>
			<rect x="443.9" y="321.6" class="st0" width="46.6" height="46.6"/>
			<rect x="443.1" y="754.6" class="st2" width="46.6" height="0.3"/>
			<rect x="443.1" y="657.1" class="st0" width="46.6" height="97.5"/>
			<polygon class="st0" points="417.9,400 417.9,519.2 393.4,519.2 393.4,424.5 316.3,424.5 173.9,424.5 316.3,400 			"/>
			<path class="st0" d="M361.2,573.6v7.1c0,12.9-10.4,23.3-23.3,23.3h-7.1c-12.9,0-23.3-10.4-23.3-23.3v-7.1
				c0-12.9,10.4-23.3,23.3-23.3h7.1C350.8,550.3,361.2,560.7,361.2,573.6z"/>
			<path class="st0" d="M361.2,476.1v7.1c0,12.9-10.4,23.3-23.3,23.3h-7.1c-12.9,0-23.3-10.4-23.3-23.3v-7.1
				c0-12.9,10.4-23.3,23.3-23.3h7.1C350.8,452.8,361.2,463.2,361.2,476.1z"/>
			<rect x="298.6" y="754.6" class="st2" width="62.5" height="0.4"/>
			<path class="st0" d="M361.1,688.4v66.2h-62.5v-66.2c0-17.3,14-31.3,31.3-31.3C347.2,657.1,361.2,671.1,361.1,688.4z"/>
			<path class="st0" d="M261.9,671.1v7.1c0,12.9-10.4,23.3-23.3,23.3h-7.1c-12.9,0-23.3-10.4-23.3-23.3v-7.1
				c0-12.9,10.4-23.3,23.3-23.3h7.1C251.5,647.8,261.9,658.2,261.9,671.1z"/>
			<path class="st0" d="M261.9,573.6v7.1c0,12.9-10.4,23.3-23.3,23.3h-7.1c-12.9,0-23.3-10.4-23.3-23.3v-7.1
				c0-12.9,10.4-23.3,23.3-23.3h7.1C251.5,550.3,261.9,560.7,261.9,573.6z"/>
			<path class="st0" d="M261.9,476.1v7.1c0,12.9-10.4,23.3-23.3,23.3h-7.1c-12.9,0-23.3-10.4-23.3-23.3v-7.1
				c0-12.9,10.4-23.3,23.3-23.3h7.1C251.5,452.8,261.9,463.2,261.9,476.1z"/>
		</g>
		<g>
			<path class="st3" d="M162.3,853.9C68.8,764.8,10.6,639,10.6,499.7c0-270.2,219.1-489.3,489.3-489.3
				c259.7,0,472.1,202.3,488.3,457.9c0,0.5,0.1,0.9,0.1,1.4c0.6,9.9,0.9,19.9,0.9,30c0,270.2-219.1,489.3-489.3,489.3
				c-129.4,0-247.1-50.2-334.6-132.3C164.3,855.8,163.3,854.8,162.3,853.9z"/>
		</g>
	</g>
</g>
</svg>
