<?xml version="1.0" encoding="utf-8"?>
<!-- Generator: Adobe Illustrator 22.0.1, SVG Export Plug-In . SVG Version: 6.00 Build 0)  -->
<svg version="1.1" xmlns="http://www.w3.org/2000/svg" xmlns:xlink="http://www.w3.org/1999/xlink" x="0px" y="0px"
	 viewBox="0 0 1000 1000" style="enable-background:new 0 0 1000 1000;" xml:space="preserve">
<style type="text/css">
	.st0{fill:#2CA6FC;}
	.st1{fill:#FFFFFF;}
	.st2{fill:#FF5B1E;}
	.st3{fill:none;stroke:#2CA6FC;stroke-width:14;stroke-miterlimit:10;}
</style>
<g id="Layer_1">
	<rect x="533" y="321.6" class="st0" width="46.6" height="46.6"/>
	<rect x="443.9" y="321.6" class="st0" width="46.6" height="46.6"/>
	<rect x="443.9" y="406.2" class="st0" width="46.6" height="46.6"/>
	<rect x="443.9" y="490.8" class="st0" width="46.6" height="46.6"/>
	<rect x="443.9" y="575.4" class="st0" width="46.6" height="46.6"/>
	<path class="st1" d="M120.6,259.3"/>
	<g id="XMLID_2_">
		<g>
			<polygon class="st0" points="417.9,400 417.9,519.2 393.4,519.2 393.4,424.5 316.3,424.5 173.9,424.5 316.3,400 			"/>
		</g>
		<g>
		</g>
	</g>
	<path class="st0" d="M238.6,452.8h-7.1c-12.9,0-23.3,10.4-23.3,23.3v7.1c0,12.9,10.4,23.3,23.3,23.3h7.1
		c12.9,0,23.3-10.4,23.3-23.3v-7.1C261.9,463.2,251.5,452.8,238.6,452.8z"/>
	<path class="st0" d="M238.6,550.3h-7.1c-12.9,0-23.3,10.4-23.3,23.3v7.1c0,12.9,10.4,23.3,23.3,23.3h7.1
		c12.9,0,23.3-10.4,23.3-23.3v-7.1C261.9,560.7,251.5,550.3,238.6,550.3z"/>
	<path class="st0" d="M238.6,647.8h-7.1c-12.9,0-23.3,10.4-23.3,23.3v7.1c0,12.9,10.4,23.3,23.3,23.3h7.1
		c12.9,0,23.3-10.4,23.3-23.3v-7.1C261.9,658.2,251.5,647.8,238.6,647.8z"/>
	<path class="st0" d="M337.9,452.8h-7.1c-12.9,0-23.3,10.4-23.3,23.3v7.1c0,12.9,10.4,23.3,23.3,23.3h7.1
		c12.9,0,23.3-10.4,23.3-23.3v-7.1C361.2,463.2,350.8,452.8,337.9,452.8z"/>
	<path class="st0" d="M337.9,550.3h-7.1c-12.9,0-23.3,10.4-23.3,23.3v7.1c0,12.9,10.4,23.3,23.3,23.3h7.1
		c12.9,0,23.3-10.4,23.3-23.3v-7.1C361.2,560.7,350.8,550.3,337.9,550.3z"/>
	<path class="st1" d="M304,1049.4"/>
	<path class="st0" d="M329.9,657.1L329.9,657.1c-17.3,0-31.3,14-31.3,31.3v66.6h62.5v-66.6C361.2,671.1,347.2,657.1,329.9,657.1z"/>
	<rect x="443.1" y="657.1" class="st0" width="46.6" height="97.8"/>
	
		<rect x="486.8" y="440.2" transform="matrix(-1.836970e-16 1 -1 -1.836970e-16 1265.8999 267.8)" class="st0" width="24.5" height="653.2"/>
	<path class="st2" d="M632.8,754.6c-11.6-14.8-32-41.6-52.3-71.8c-41.9-62.6-63.2-109.9-63.2-140.3c0-74.2,60.4-134.5,134.5-134.5
		c74.2,0,134.5,60.3,134.5,134.5c0,30.5-21.3,77.7-63.2,140.3c-20.2,30.2-40.7,57-52.3,71.8"/>
	<path d="M655.7,485.8c-29.6,0-53.7,24-53.7,53.7c0,29.6,24,53.7,53.7,53.7s53.7-24.1,53.7-53.7
		C709.4,509.9,685.3,485.8,655.7,485.8z"/>
	<g id="XMLID_3_">
		<g>
			<polygon class="st0" points="658.9,252.5 658.9,371.6 634.4,371.6 634.4,277 557.3,277 414.9,277 557.3,252.5 			"/>
		</g>
		<g>
		</g>
	</g>
</g>
<g id="Layer_2">
	<circle class="st3" cx="499.9" cy="499.7" r="489.3"/>
</g>
</svg>
