<?xml version="1.0" encoding="utf-8"?>
<!-- Generator: Adobe Illustrator 22.0.1, SVG Export Plug-In . SVG Version: 6.00 Build 0)  -->
<svg version="1.1" xmlns="http://www.w3.org/2000/svg" xmlns:xlink="http://www.w3.org/1999/xlink" x="0px" y="0px"
	 viewBox="0 0 1000 1000" style="enable-background:new 0 0 1000 1000;" xml:space="preserve">
<style type="text/css">
	.st0{fill:#FF5B1E;}
	.st1{fill:#2CA6FC;}
	.st2{fill:#FFFFFF;}
</style>
<g id="Layer_2">
	<rect x="515.1" y="410" class="st0" width="289.1" height="346.9"/>
</g>
<g id="Layer_1">
	<g>
		<path d="M656.7,487.6c-29.6,0-53.7,24-53.7,53.7c0,29.6,24,53.7,53.7,53.7s53.7-24.1,53.7-53.7
			C710.4,511.8,686.3,487.6,656.7,487.6z"/>
		<path d="M500,10c-270.6,0-490,219.4-490,490s219.4,490,490,490s490-219.4,490-490S770.6,10,500,10z M826.6,756.6v24.5h0.1H647.8
			h-83.6h-95.8H416h-18.5H218.8h-45.4v-24.5 M633.8,756.6c-11.6-14.8-32-41.6-52.3-71.8c-41.9-62.6-63.2-109.9-63.2-140.3
			c0-74.2,60.4-134.5,134.5-134.5c74.2,0,134.5,60.3,134.5,134.5c0,30.5-21.3,77.7-63.2,140.3c-20.2,30.2-40.7,57-52.3,71.8"/>
		<g id="XMLID_1_">
			<g>
				<polygon class="st1" points="660,254.5 660,373.6 635.5,373.6 635.5,279 558.5,279 416,279 558.5,254.5 				"/>
			</g>
			<g>
			</g>
		</g>
	</g>
	<rect x="534" y="323.6" class="st1" width="46.6" height="46.6"/>
	<rect x="444.9" y="323.6" class="st1" width="46.6" height="46.6"/>
	<rect x="444.9" y="408.2" class="st1" width="46.6" height="46.6"/>
	<rect x="444.9" y="492.8" class="st1" width="46.6" height="46.6"/>
	<rect x="444.9" y="577.4" class="st1" width="46.6" height="46.6"/>
	<path class="st2" d="M121.6,261.3"/>
	<g id="XMLID_2_">
		<g>
			<polygon class="st1" points="418.9,402 418.9,521.2 394.4,521.2 394.4,426.5 317.3,426.5 174.9,426.5 317.3,402 			"/>
		</g>
		<g>
		</g>
	</g>
	<path class="st1" d="M239.6,454.8h-7.1c-12.9,0-23.3,10.4-23.3,23.3v7.1c0,12.9,10.4,23.3,23.3,23.3h7.1
		c12.9,0,23.3-10.4,23.3-23.3v-7.1C262.9,465.2,252.5,454.8,239.6,454.8z"/>
	<path class="st1" d="M239.6,552.3h-7.1c-12.9,0-23.3,10.4-23.3,23.3v7.1c0,12.9,10.4,23.3,23.3,23.3h7.1
		c12.9,0,23.3-10.4,23.3-23.3v-7.1C262.9,562.7,252.5,552.3,239.6,552.3z"/>
	<path class="st1" d="M239.6,649.8h-7.1c-12.9,0-23.3,10.4-23.3,23.3v7.1c0,12.9,10.4,23.3,23.3,23.3h7.1
		c12.9,0,23.3-10.4,23.3-23.3v-7.1C262.9,660.2,252.5,649.8,239.6,649.8z"/>
	<path class="st1" d="M338.9,454.8h-7.1c-12.9,0-23.3,10.4-23.3,23.3v7.1c0,12.9,10.4,23.3,23.3,23.3h7.1
		c12.9,0,23.3-10.4,23.3-23.3v-7.1C362.2,465.2,351.8,454.8,338.9,454.8z"/>
	<path class="st1" d="M338.9,552.3h-7.1c-12.9,0-23.3,10.4-23.3,23.3v7.1c0,12.9,10.4,23.3,23.3,23.3h7.1
		c12.9,0,23.3-10.4,23.3-23.3v-7.1C362.2,562.7,351.8,552.3,338.9,552.3z"/>
	<path class="st2" d="M305,1051.4"/>
	<path class="st1" d="M330.9,659.1L330.9,659.1c-17.3,0-31.3,14-31.3,31.3v66.6h62.5v-66.6C362.2,673.1,348.2,659.1,330.9,659.1z"/>
	<rect x="444.1" y="659.1" class="st1" width="46.6" height="97.8"/>
	
		<rect x="487.8" y="442.2" transform="matrix(-1.836970e-16 1 -1 -1.836970e-16 1268.8999 268.8)" class="st1" width="24.5" height="653.2"/>
</g>
</svg>
