<?xml version="1.0" standalone="no"?>
<!DOCTYPE svg PUBLIC "-//W3C//DTD SVG 20010904//EN"
 "http://www.w3.org/TR/2001/REC-SVG-20010904/DTD/svg10.dtd">
<svg version="1.0" xmlns="http://www.w3.org/2000/svg"
 width="4350.000000pt" height="4350.000000pt" viewBox="0 0 4350.000000 4350.000000"
 preserveAspectRatio="xMidYMid meet">
<metadata>
Created by potrace 1.11, written by Peter Selinger 2001-2013
</metadata>
<g transform="translate(0.000000,4350.000000) scale(0.100000,-0.100000)"
fill="#000000" stroke="none">
<path d="M21210 43434 c-52 -2 -210 -8 -350 -14 -3757 -159 -7393 -1355
-10508 -3456 -873 -590 -1670 -1220 -2467 -1954 -270 -249 -876 -855 -1125
-1125 -498 -542 -941 -1074 -1365 -1640 -1926 -2573 -3203 -5526 -3759 -8690
-339 -1930 -396 -3966 -166 -5930 245 -2094 806 -4109 1685 -6055 119 -263
437 -907 575 -1165 830 -1544 1797 -2903 3004 -4225 220 -240 937 -957 1181
-1180 1685 -1542 3516 -2745 5555 -3652 3085 -1372 6472 -1950 9885 -1687
2981 229 5897 1124 8495 2607 1188 677 2316 1481 3348 2386 359 314 573 516
988 930 523 524 848 879 1276 1393 1357 1633 2464 3489 3248 5449 735 1836
1196 3756 1374 5724 92 1011 110 2082 51 3075 -148 2479 -729 4865 -1733 7116
-834 1868 -1935 3582 -3311 5154 -541 618 -1247 1323 -1876 1875 -1606 1408
-3407 2550 -5350 3392 -1668 723 -3406 1214 -5217 1472 -642 92 -1242 149
-1978 186 -200 11 -1270 21 -1460 14z m7200 -12664 l0 -2480 -505 0 -505 0 0
1970 0 1970 -4549 2 -4549 3 2941 507 2942 506 2113 1 2112 1 0 -2480z m-7020
-1370 l0 -970 -965 0 -965 0 0 970 0 970 965 0 965 0 0 -970z m3720 0 l0 -970
-970 0 -970 0 0 970 0 970 970 0 970 0 0 -970z m-6740 -4780 l0 -2480 -510 0
-510 0 0 1970 0 1970 -4557 2 -4558 3 2940 507 2940 506 2128 1 2127 1 0
-2480z m3020 1250 l0 -970 -965 0 -965 0 0 970 0 970 965 0 965 0 0 -970z
m-10250 -999 c371 -95 658 -412 715 -790 18 -113 20 -447 5 -570 -52 -414
-361 -742 -779 -826 -67 -14 -130 -16 -369 -13 -278 4 -290 5 -376 32 -263 80
-479 258 -594 489 -93 186 -105 266 -100 637 4 275 5 288 31 373 49 158 117
276 226 391 117 122 223 193 371 246 143 53 205 59 510 56 243 -3 285 -6 360
-25z m4061 14 c378 -66 682 -345 773 -709 51 -200 48 -611 -4 -806 -75 -276
-301 -527 -570 -633 -154 -60 -168 -62 -515 -62 l-320 0 -90 28 c-319 99 -558
328 -653 627 -43 135 -47 174 -46 465 0 272 1 283 27 380 100 370 395 642 770
710 105 19 520 19 628 0z m6189 -2535 l0 -970 -965 0 -965 0 0 970 0 970 965
0 965 0 0 -970z m-10262 -1539 c183 -46 336 -136 468 -273 128 -134 201 -264
247 -446 20 -80 22 -111 22 -372 0 -262 -2 -292 -22 -373 -95 -372 -373 -641
-748 -723 -96 -21 -430 -30 -571 -15 -252 26 -436 112 -605 280 -123 124 -202
258 -251 427 -22 75 -23 95 -23 404 0 309 1 329 23 404 94 325 336 574 652
670 126 39 199 45 475 41 214 -2 262 -6 333 -24z m4027 18 c399 -49 720 -332
821 -724 48 -187 45 -610 -6 -794 -88 -318 -341 -575 -655 -666 -125 -36 -277
-49 -504 -42 -260 7 -370 32 -528 117 -284 153 -466 424 -503 750 -17 140 -7
508 15 609 41 186 120 326 265 471 172 172 353 259 590 283 84 9 423 6 505 -4z
m6235 -2009 l0 -970 -965 0 -965 0 0 970 0 970 965 0 965 0 0 -970z m-10231
-2079 c217 -65 419 -209 540 -385 53 -76 119 -225 143 -322 21 -82 23 -112 23
-369 0 -303 -7 -359 -60 -500 -101 -269 -324 -482 -598 -573 -137 -46 -234
-55 -511 -49 -201 4 -255 8 -324 26 -182 46 -337 136 -465 270 -116 121 -184
238 -234 398 l-27 88 -1 325 c0 308 1 330 23 410 94 347 386 621 742 695 48
10 144 13 370 11 282 -2 311 -4 379 -25z m3670 -361 c191 -20 384 -82 531
-170 321 -193 525 -476 617 -855 16 -64 18 -202 23 -1550 l5 -1480 1708 -3
1707 -2 0 2035 0 2035 970 0 970 0 0 -2036 0 -2037 3773 3 c2074 2 5224 3
7000 2 l3227 -2 0 -505 0 -505 -13610 0 -13610 0 0 505 0 505 2630 0 2629 0 4
1468 3 1467 22 97 c98 427 371 761 763 929 110 48 254 86 369 98 122 12 156
12 269 1z"/>
</g>
</svg>
